<svg xmlns="http://www.w3.org/2000/svg" width="248.151" height="945.65" viewBox="0 0 248.151 945.65">
  <g id="Grupo_43" data-name="Grupo 43" transform="translate(-1513.208 -215.247)">
    <path id="Caminho_4" data-name="Caminho 4" d="M1636.5,459.143c-66.734,0-123.235-55.964-123.235-121.183,0-64.7,56.5-122.712,123.235-122.712,66.786,0,124.774,58.014,124.774,122.712C1761.272,403.179,1703.283,459.143,1636.5,459.143Z" transform="translate(0.016 0)" fill="#fff"/>
    <path id="Caminho_5" data-name="Caminho 5" d="M1761.217,711.548c-3.078-64.624-57.988-122.712-124.774-122.712-66.734,0-123.235,58.014-123.235,122.712,0,63.281,53.3,117.4,117.424,120.582-30.71,107.2-114.859,198.762-114.859,198.762l25.144,12.832c9.763,4.622,20.025,8.721,31.33,8.721,21.045,0,47.355-13.342,69.418-54.425C1641.665,998.021,1766.134,814.771,1761.217,711.548Z" transform="translate(0 108.451)" fill="#fff"/>
  </g>
</svg>
