<svg xmlns="http://www.w3.org/2000/svg" width="47.638" height="56.258" viewBox="0 0 47.638 56.258">
  <g id="Grupo_22" data-name="Grupo 22" transform="translate(-356.006 -360.688)">
    <path id="Caminho_9" data-name="Caminho 9" d="M376.46,381.741c-5.965,3.738-9.539,11.989-7.033,18.771a27.223,27.223,0,0,0,3.2,6.265,31.405,31.405,0,0,0,2.319,2.766,8.6,8.6,0,0,1,2,4.044,3.639,3.639,0,0,0,.689,1.484,1.75,1.75,0,0,0-.291,2.1c-1.055,1.367-.586,2.2.546,2.709-1.745,2.612,1.918,3.158,5.261,3.179a4.708,4.708,0,0,0,.344,1.506c.335.676,1.235.744,1.9.734a5.352,5.352,0,0,0,2.46-.477,2.4,2.4,0,0,0,.819-1.954c1.92.046,4.837.191,5.8-1.03a1.355,1.355,0,0,0-.231-1.97c.926-.5,1.288-1.283.53-2.5a1.745,1.745,0,0,0-.508-2.172,2.735,2.735,0,0,0,.364-.57c.433-.911.175-1.906.4-2.864.342-1.453,1.3-2.2,2.08-3.359,1.158-1.721,2.765-3.388,3.671-5.239,2.97-6.068,1.749-14.526-2.981-19.328C392.049,378,383.337,377.432,376.46,381.741Zm7.906,12.2a1.33,1.33,0,1,1,2.349.32,3.319,3.319,0,0,1-1.077,2.452A3.578,3.578,0,0,1,384.366,393.94Zm1.173,4.351a8.979,8.979,0,0,0,2.845,1.592c-1.349,4.655-1.034,10.284-.76,14.888-.583-.023-1.135-.046-1.6-.042-.737,0-1.509,0-2.287-.036-.048-2,.139-9.691-1.087-15.027A10.945,10.945,0,0,0,385.539,398.29Zm.487,18.063c1.957-.017,3.943-.111,5.894-.272a6.612,6.612,0,0,0,1.29-.2c1.192,1.209-2.291,1.463-3.132,1.5-1.327.053-2.656.024-3.982-.02-1.219-.04-2.441-.076-3.659-.152-.826-.051-5.158-.574-3.7-1.5.151.042.316.078.5.109A39.243,39.243,0,0,0,386.026,416.354Zm6.893,2.838-1.448.18c-.607.054-1.218.076-1.827.091-1.361.032-2.726-.014-4.086-.027-1.1-.01-2.2-.027-3.3-.081-.31-.015-4.438-.141-3.956-1.373,1.763.838,4.993.5,6.517.553,2.594.1,5.973.591,8.529-.252Zm-5.965,4.675a5.134,5.134,0,0,1-1.563.215,1.664,1.664,0,0,1-.684-.053c-.177-.085-.04.028-.155-.17a2.342,2.342,0,0,1-.193-.812c1.4-.037,2.586-.136,3.09-.17C387.408,423.291,387.3,423.735,386.954,423.866Zm5.959-3.484a1.64,1.64,0,0,1-1.868,1.069l-1.881.109c-1.066.061-2.131.126-3.2.173-.839.037-8.146.283-6.931-1.388a.658.658,0,0,0,.049-.083,32.642,32.642,0,0,0,6.474.392,33.439,33.439,0,0,0,7.315-.3C392.887,420.362,392.9,420.373,392.913,420.382Zm7.374-21.539a11.608,11.608,0,0,1-2.316,5.392c-1.139,1.5-2.3,3.025-3.327,4.6a8.072,8.072,0,0,0-1.183,2.5c-.31,1.273.184,2.453-1.541,3.123a8.825,8.825,0,0,1-3.074.349c-.274-4.655-.525-10.084.776-14.677,2.335.194,5.76-.836,5.16-3.594-.859-3.956-4.538-1.156-5.565,1.075-.157.339-.3.688-.431,1.043a7.72,7.72,0,0,1-1.3-.541,8.027,8.027,0,0,1-.943-.613c1.745-1.592,2.45-3.639.676-5.706-1.444-1.682-3.569-.54-4.029,1.554a4.717,4.717,0,0,0,1.488,4.142,8.153,8.153,0,0,1-2.324,1.039c-.916-3.137-2.451-5.086-5.026-3.787-1.5.755-1.31,2.846-.339,3.969a4.657,4.657,0,0,0,4.517,1.23,42.6,42.6,0,0,1,.573,6.657l.429,8.019a17,17,0,0,1-2.236-.327c-1.141-.255-1.375-.223-1.845-1.446a21.832,21.832,0,0,0-.674-2.474c-.989-1.916-3.014-3.293-4.205-5.117a21.288,21.288,0,0,1-3.112-6.792,14.611,14.611,0,0,1,2.435-10.775c2.95-4.49,7.486-6.737,12.785-7.15a14,14,0,0,1,12.44,6.221A15.872,15.872,0,0,1,400.287,398.843Zm-10.287.1c.024-.067.044-.136.069-.2a6.378,6.378,0,0,1,1.436-2.391q3.21-1.108,1.212,2.03A3.212,3.212,0,0,1,390,398.939Zm-8.8-.186a5.5,5.5,0,0,1-1.016.021c-.831-.065-3.572-.955-2.685-2.494,1.2-2.089,3.236,1.107,3.568,2.041C381.115,398.463,381.152,398.609,381.2,398.753Z" transform="translate(-5.779 -8.355)" fill="#45e5c6"/>
    <path id="Caminho_10" data-name="Caminho 10" d="M437.015,385.511a29.155,29.155,0,0,0-5.121,2.658c-.842.605-.031,2.015.82,1.4a29.185,29.185,0,0,1,5.121-2.659C438.787,386.483,437.962,385.082,437.015,385.511Z" transform="translate(-34.614 -11.338)" fill="#45e5c6"/>
    <path id="Caminho_11" data-name="Caminho 11" d="M418.758,373.367a37.846,37.846,0,0,0,3.081-4.923.813.813,0,0,0-1.4-.82,35.393,35.393,0,0,1-2.826,4.595C416.972,373.034,418.115,374.191,418.758,373.367Z" transform="translate(-28.145 -2.996)" fill="#45e5c6"/>
    <path id="Caminho_12" data-name="Caminho 12" d="M399.518,366.963q.19-2.743.176-5.491a.813.813,0,0,0-1.625,0q.015,2.75-.176,5.491C397.821,368.007,399.447,368,399.518,366.963Z" transform="translate(-19.194 0)" fill="#45e5c6"/>
    <path id="Caminho_13" data-name="Caminho 13" d="M377.015,373.039c.579.865,1.988.052,1.4-.82a26.3,26.3,0,0,1-3.045-5.12c-.367-.969-1.938-.549-1.567.432A27.853,27.853,0,0,0,377.015,373.039Z" transform="translate(-8.132 -2.687)" fill="#45e5c6"/>
    <path id="Caminho_14" data-name="Caminho 14" d="M362.164,387.738a23.25,23.25,0,0,0-5.183-2.858c-.971-.389-1.393,1.183-.432,1.567a21.674,21.674,0,0,1,4.8,2.694C362.187,389.762,363,388.352,362.164,387.738Z" transform="translate(0 -11.058)" fill="#45e5c6"/>
    <path id="Caminho_15" data-name="Caminho 15" d="M383.541,387.909a11.857,11.857,0,0,0-7.744,9.076c-.1.767,1.07,1.1,1.176.324a10.682,10.682,0,0,1,6.893-8.224A.61.61,0,0,0,383.541,387.909Z" transform="translate(-9.066 -12.462)" fill="#45e5c6"/>
    <path id="Caminho_16" data-name="Caminho 16" d="M388.874,391.79a4.839,4.839,0,0,0-2.961,1.883c-.475.613.382,1.482.862.862a3.871,3.871,0,0,1,2.423-1.569C389.972,392.857,389.643,391.682,388.874,391.79Z" transform="translate(-13.642 -14.25)" fill="#45e5c6"/>
  </g>
</svg>
