<svg xmlns="http://www.w3.org/2000/svg" width="65.494" height="56.258" viewBox="0 0 65.494 56.258">
  <g id="Grupo_24" data-name="Grupo 24" transform="translate(-348.833 -91.125)">
    <path id="Caminho_26" data-name="Caminho 26" d="M402.447,106.1a11.765,11.765,0,0,0-3.636.366c-1.236-3.026-2.589-6-4.05-8.9-.921-1.828-2-4.721-3.787-5.93-2.467-1.671-5.251,1.1-6.8,2.791-6.594,7.226-12.607,14.85-21.439,19.526a.972.972,0,0,0-.209.15c-2.489.76-4.97,1.542-7.44,2.362-1.591.528-3.758.886-5.072,2.053-2.255,2.006-.75,6.374.141,8.664.839,2.159,2.793,6.51,5.305,7.251a4.543,4.543,0,0,0,2.317-.111c1.494,3.1,2.854,6.287,4.578,9.268,1.11,1.92,2.234,4.475,4.828,3.616,2.706-.9,6.113-3.656,5.289-6.851-.416-1.614-1.89-2.818-2.807-4.128a30.155,30.155,0,0,1-2.552-4.616c.4-.126.8-.252,1.2-.381a50.638,50.638,0,0,1,15.316-.925c4.584.507,9.061,1.716,13.562,2.675,2.217.472,6.444,2.221,7.968-.465,1.556-2.743-.5-7.873-1.2-10.6-.482-1.852-1.017-3.7-1.589-5.532,1.244-.836,2.785-1.628,3.393-3.026.64-1.475,0-3.1-.62-4.466C404.609,107.731,403.85,106.289,402.447,106.1ZM354,130.327a18.129,18.129,0,0,1-2.95-6.944c-.488-2.693,1.021-3.875,3.344-4.658,2.806-.945,5.627-1.84,8.458-2.707Q365,122.81,367.4,129.513c-2.511.807-5.04,1.555-7.6,2.2C357.427,132.323,355.628,132.584,354,130.327Zm15.085,7.532c.256.337.663.772.87,1.1,1.252,1.965,1.279,3.173-.376,5a7,7,0,0,1-1.874,1.308,3.5,3.5,0,0,1-1.349.424,8.015,8.015,0,0,0,.66-1.446c.3-.879-1.09-1.257-1.389-.383a6.149,6.149,0,0,1-.57,1.2c-.062-.059-.122-.111-.188-.178-.134-.138-.26-.291-.385-.446a.738.738,0,0,0,.042-.091,7.271,7.271,0,0,1,.447-.873,9.117,9.117,0,0,0,.458-1.1c.3-.878-1.089-1.256-1.39-.383a7.819,7.819,0,0,1-.489,1.058c-.19-.337-.369-.686-.542-1.037,0,0,.007-.006.01-.011q.495-1.082.991-2.165a.742.742,0,0,0-.259-.986.726.726,0,0,0-.985.259l-.554,1.21c-.131-.28-.26-.555-.387-.813-.067-.134-.129-.272-.195-.407a.758.758,0,0,0,.148-.179l.964-1.659a.721.721,0,0,0-1.244-.727l-.6,1.034c-.181-.382-.368-.761-.547-1.145a1.054,1.054,0,0,0,.149-.149q.431-.568.833-1.155a.727.727,0,0,0-.259-.985.734.734,0,0,0-.986.258c-.136.2-.281.391-.422.585-.166-.352-.331-.7-.5-1.055.409-.132.8-.258,1.144-.346,1.819-.462,3.622-.976,5.416-1.523A31.29,31.29,0,0,0,369.09,137.859Zm26.622-7.16a107.561,107.561,0,0,0-12.5-2.355,51.422,51.422,0,0,0-14.392.855q-2.466-6.871-4.657-13.834c7.938-4.333,14.11-11.1,19.928-17.9a26.752,26.752,0,0,1,2.931-3.3c3.434,5.141,5.675,11.544,7.924,17.218a108.366,108.366,0,0,1,5.962,20.522A36.416,36.416,0,0,1,395.712,130.7Zm7.967-.6a1.714,1.714,0,0,1-1.334,1.708,108.217,108.217,0,0,0-6.195-21.259c-2.279-5.684-4.479-12.026-7.922-17.159a2.009,2.009,0,0,1,1.881.031c.816.467,1.514,2.328,1.944,3.111a102.376,102.376,0,0,1,5.2,11.326,124.248,124.248,0,0,1,4.726,14.1C402.622,124.367,403.845,127.589,403.679,130.1Zm.448-16.826a7.29,7.29,0,0,1-2.206,1.7q-1.172-3.6-2.569-7.135c.573-.095,1.146-.187,1.724-.248,1.406-.148,1.943.255,2.6,1.555C404.308,110.387,405.034,111.979,404.127,113.275Z" transform="translate(0)" fill="#45e5c6"/>
    <path id="Caminho_27" data-name="Caminho 27" d="M432.35,105.081c.011-1.369,0-2.738.007-4.107a.721.721,0,0,0-1.441,0c-.012,1.368,0,2.737-.007,4.107A.721.721,0,0,0,432.35,105.081Z" transform="translate(-29.519 -3.292)" fill="#45e5c6"/>
    <path id="Caminho_28" data-name="Caminho 28" d="M441.637,110.021l2.251-2.469c.624-.684-.393-1.706-1.019-1.019L440.618,109C439.995,109.686,441.01,110.707,441.637,110.021Z" transform="translate(-32.941 -5.459)" fill="#45e5c6"/>
    <path id="Caminho_29" data-name="Caminho 29" d="M447.836,119.421c-1.069-.067-2.141-.06-3.211-.093-.928-.029-.927,1.412,0,1.441,1.07.033,2.142.026,3.211.093C448.762,120.92,448.759,119.479,447.836,119.421Z" transform="translate(-34.202 -10.143)" fill="#45e5c6"/>
    <path id="Caminho_30" data-name="Caminho 30" d="M440.976,129.641c-.753-.543-1.473.706-.727,1.244a29.869,29.869,0,0,1,2.607,2.166c.684.624,1.706-.393,1.019-1.019A32.991,32.991,0,0,0,440.976,129.641Z" transform="translate(-32.765 -13.804)" fill="#45e5c6"/>
    <path id="Caminho_31" data-name="Caminho 31" d="M358.877,139.51c.855-.332.483-1.726-.383-1.389l-2.9,1.127c-.855.332-.483,1.726.383,1.389Z" transform="translate(-2.258 -16.883)" fill="#45e5c6"/>
    <path id="Caminho_32" data-name="Caminho 32" d="M359.608,141.79a21.042,21.042,0,0,1-3.063,1.171.721.721,0,0,0,.383,1.39,23.5,23.5,0,0,0,3.407-1.317C361.171,142.636,360.441,141.393,359.608,141.79Z" transform="translate(-2.592 -18.194)" fill="#45e5c6"/>
  </g>
</svg>
