<svg xmlns="http://www.w3.org/2000/svg" width="56.434" height="56.258" viewBox="0 0 56.434 56.258">
  <g id="Grupo_21" data-name="Grupo 21" transform="translate(-1021.19 -326.707)">
    <path id="Caminho_6" data-name="Caminho 6" d="M1073.3,329.668c-3.151-2.937-6.138-3.786-10.182-2.111-3.579,1.482-6.378,4.717-9.2,7.291-4.247,3.875-8.343,7.915-12.365,12.022q-5.827,5.948-11.44,12.1a63.051,63.051,0,0,0-4.992,5.674,1.484,1.484,0,0,0-.275.466,30.374,30.374,0,0,0-1.9,6.578,76.059,76.059,0,0,0-1.759,10.366c-.06.665.64.983,1.18.9,5.453-.851,10.836-2.058,16.268-3.016,2.21-.39,3.173-1.916,4.72-3.517q3.89-4.022,7.755-8.069c4.8-5.006,9.6-10.014,14.472-14.945,4.02-4.064,9.7-8.473,11.621-14.067C1078.625,335.209,1076.192,332.36,1073.3,329.668ZM1067.539,349a68.154,68.154,0,0,1-5.933-6.121c-2.109-2.236-4.37-4.321-6.639-6.394q.621-.574,1.244-1.147,6.308,6.205,12.453,12.57C1068.292,348.279,1067.916,348.641,1067.539,349Zm-5,4.85c-3.947-4.458-8.557-8.287-13.032-12.2q.554-.536,1.111-1.068c4.754,3.485,8.784,8.083,12.93,12.248-.159.159-.32.316-.476.474C1062.891,353.486,1062.715,353.67,1062.536,353.852Zm-24.075,17.866h-.007c-1.774.106-3.55.108-5.326.16a17.353,17.353,0,0,0-.547-4.765c3.2-3.137,5.958-6.565,9.011-9.834,3.444-3.688,7.1-7.195,10.656-10.77,1.85,1.618,3.679,3.262,5.437,4.974C1051.444,358.387,1045.1,365.195,1038.461,371.719Zm15.475-34.28q.5.452.99.906a27.075,27.075,0,0,1-2.1,2.17c-.391-.313-.794-.609-1.195-.908Q1052.776,338.516,1053.936,337.439Zm4.56,8.238a21.813,21.813,0,0,0,2.055-1.874c.022.023.045.045.067.068.392.415.768.829,1.138,1.239a16.442,16.442,0,0,1-1.925,1.911C1059.388,346.569,1058.942,346.122,1058.5,345.676Zm-1-.981c-.385-.374-.768-.751-1.159-1.117q.964-1.04,1.97-2.04c.427.416.847.839,1.265,1.264A21.8,21.8,0,0,1,1057.5,344.695Zm-2.195-2.058q-.69-.623-1.4-1.223a27.011,27.011,0,0,0,2.045-2.121q.68.632,1.354,1.271Q1056.282,341.581,1055.3,342.637Zm5.5,5.384a16.364,16.364,0,0,0,1.892-1.866c.413.46.827.914,1.247,1.36-.621.609-1.214,1.244-1.785,1.9Q1061.482,348.719,1060.8,348.021Zm-23.183,5.62q5.172-5.454,10.538-10.7,1.512,1.324,3.036,2.642c-3.539,3.552-7.168,7.039-10.59,10.7-3.051,3.267-5.812,6.7-9.01,9.833a14.51,14.51,0,0,0-1.631-.249c-1.025-.185-2.055-.341-3.088-.477C1029.893,361.157,1034.068,357.388,1037.62,353.642Zm-7.108,26.1a40.483,40.483,0,0,0-6.088-6.072c.108-.495.213-.991.327-1.484a37.137,37.137,0,0,1,1.422-5.492c1.485.133,3.811.164,5.114.829-.505-.166-.009.929.082,1.648.146,1.142.278,2.285.411,3.428a.713.713,0,0,0,.7.7c1.317-.05,2.672.033,3.983-.088,1.427-.132,1.377-.42,1.536.986.145,1.279.243,2.564.334,3.848-.161.057-.326.108-.493.15C1035.436,378.794,1032.98,379.292,1030.512,379.738Zm20.082-13.537q-3.324,3.468-6.652,6.932a28.279,28.279,0,0,1-4.257,4.22c-.1-1.48-.232-2.962-.453-4.428,6.72-6.591,13.135-13.477,19.447-20.459q1.315,1.326,2.556,2.722Q1055.883,360.665,1050.594,366.2Zm13.95-14.349q-.708-.71-1.412-1.431.857-.987,1.788-1.906c.506.5,1.037.984,1.6,1.454C1065.854,350.6,1065.19,351.23,1064.544,351.852Zm10.375-11.873a27.835,27.835,0,0,1-4.945,6.6q-6.113-6.335-12.39-12.508c.092-.083.181-.168.273-.252,2.819-2.542,6.337-6.348,10.586-5.172,1.965.543,3.573,2.254,4.9,3.72C1075.5,334.752,1076.521,336.782,1074.919,339.979Z" fill="#4fe6c9"/>
    <path id="Caminho_7" data-name="Caminho 7" d="M1088.339,335.5c-.165-.883-1.513-.509-1.348.372a28.1,28.1,0,0,0,.966,3.733c.283.85,1.635.485,1.349-.372A28.117,28.117,0,0,1,1088.339,335.5Z" transform="translate(-24.899 -3.139)" fill="#4fe6c9"/>
    <path id="Caminho_8" data-name="Caminho 8" d="M1092.138,334.741c-.283-.85-1.633-.485-1.348.372q.526,1.58,1.052,3.16c.283.85,1.634.485,1.348-.372Z" transform="translate(-26.327 -2.858)" fill="#4fe6c9"/>
  </g>
</svg>
