<svg xmlns="http://www.w3.org/2000/svg" width="53.064" height="48.996" viewBox="0 0 53.064 48.996">
  <g id="Grupo_23" data-name="Grupo 23" transform="translate(-349.231 -505.827)">
    <path id="Caminho_17" data-name="Caminho 17" d="M399.1,530.167c-3.491-3.344-6.862-6.809-10.22-10.285-3.319-3.437-6.634-6.879-10.059-10.211-1.1-1.067-2.51-3.1-4.027-3.59-1.082-.35-2.528.091-3.62.26a.966.966,0,0,0-.095.025,3.633,3.633,0,0,0-1.113-.431c-1.461-.305-3.348.129-4.83.232-2.929.2-5.855.461-8.763.869-2.209.31-5.152.048-5.734,2.62a68.286,68.286,0,0,0-1.09,8.407,34.406,34.406,0,0,0-.1,8.223c.693,4.283,5.805,7.937,8.757,10.654,4.039,3.716,7.907,7.615,11.841,11.442,1.586,1.543,3.168,3.1,4.824,4.565.665.59,1.637,1.688,2.574,1.863a.862.862,0,0,0,.224.01.9.9,0,0,0,.193-.01,4.015,4.015,0,0,0,1.7-1.071c2.716,2.979,6.221-1.923,8.11-3.734,2.469-2.367,4.887-4.788,7.281-7.23a74.6,74.6,0,0,0,6.726-7.085C403.517,533.226,400.831,531.827,399.1,530.167Zm-21.446,23.064a7.251,7.251,0,0,1-1.676-1.393c-1.181-1.048-2.32-2.146-3.457-3.241-2.958-2.85-5.869-5.75-8.821-8.608-3.086-2.988-6.388-5.785-9.337-8.908-1.5-1.585-3.105-3.267-3.376-5.493a35.322,35.322,0,0,1,.05-6.625,44.25,44.25,0,0,1,.971-7.77c.635-2.4,1.707-2.187,3.828-2.507,1.821-.275,3.653-.481,5.487-.649,2.356-.218,5.366-.924,7.7-.548,2.97.479,6.016,4.689,8.049,6.737,4.054,4.086,8,8.276,12.055,12.365,1.983,2,3.99,3.979,6.039,5.912,1.116,1.053,1.784,1.515.554,2.907-.671.759-1.386,1.486-2.083,2.222q-4.747,5.018-9.667,9.87c-1.351,1.325-2.711,2.644-4.119,3.909A8.771,8.771,0,0,1,377.651,553.232Zm23.06-18.866c-.047.332-1.049,1.227-1.306,1.5q-5.377,5.752-11.017,11.256c-1.5,1.47-3.012,2.937-4.575,4.342-1,.9-1.947,2.3-3.063,1.246,1.092-.966,2.142-1.981,3.188-2.992,3.614-3.493,7.125-7.1,10.582-10.743,1.063-1.122,3.349-2.865,3.716-4.454.419-1.82-2.361-3.5-3.433-4.527-5.114-4.92-9.968-10.1-14.935-15.162-2.284-2.33-4.609-4.616-6.956-6.883-.1-.1-.2-.2-.3-.294a3.627,3.627,0,0,1,1.107-.074c1.092.153,2.164,1.439,2.922,2.167q1.941,1.863,3.838,3.77c2.568,2.575,5.089,5.2,7.616,7.812,2.557,2.646,5.122,5.285,7.747,7.864a51.438,51.438,0,0,1,3.992,3.831C400.185,533.456,400.812,533.656,400.711,534.366Z" fill="#45e5c6"/>
    <path id="Caminho_18" data-name="Caminho 18" d="M365.407,518.367c-.549-2-2.439-2.252-4.146-1.641a.812.812,0,0,0-.212.087,3.5,3.5,0,0,0-1.615,4.269,2.56,2.56,0,0,0,3.806,1.516A3.923,3.923,0,0,0,365.407,518.367Zm-2.707,2.726c-.86.564-1.537.291-1.851-.694a1.922,1.922,0,0,1,.952-2.205c.864-.295,1.921-.475,2.13.721A2.392,2.392,0,0,1,362.7,521.093Z" transform="translate(-4.76 -5.06)" fill="#45e5c6"/>
    <path id="Caminho_19" data-name="Caminho 19" d="M377.363,535.812c-.288-1.058-.989-1.969-1.265-3.036a1.745,1.745,0,0,1,3.128-1.367,2.632,2.632,0,0,1,.477,1.6c-.049,1.009,1.52,1.007,1.569,0,.143-2.909-3.705-5.908-6.079-3.352-1.208,1.3-.822,3.113-.216,4.587a15.018,15.018,0,0,1,.874,1.981,2.184,2.184,0,0,1-2.981,2.607c-2.1-.68-3.818-3.36-2.472-5.356.566-.839-.793-1.625-1.354-.792-2.419,3.587,2.382,9.653,6.427,7.849A3.971,3.971,0,0,0,377.363,535.812Z" transform="translate(-9.142 -10.91)" fill="#45e5c6"/>
    <path id="Caminho_20" data-name="Caminho 20" d="M390.749,548.421l-1.933-1.851c.421-.429.849-.853,1.3-1.251.806-.717.965-.934,2.118-.84a3.468,3.468,0,0,1,2.549,1.492c.7.734,1.8-.377,1.11-1.109-1.168-1.229-2.568-2.5-4.4-2.187-1.9.323-3.521,2.47-4.755,3.789-1.021,1.091-2.924,2.651-2.739,4.345.192,1.763,2.153,3.478,3.512,4.388.841.563,1.627-.795.792-1.354a6.539,6.539,0,0,1-1.436-1.246,4.413,4.413,0,0,1-1.134-2.574c.106-.6,1.283-1.677,1.981-2.337l1.926,1.844C390.369,550.228,391.48,549.12,390.749,548.421Z" transform="translate(-16.583 -17.558)" fill="#45e5c6"/>
    <path id="Caminho_21" data-name="Caminho 21" d="M408.078,557.443a.894.894,0,0,0-.091-.115c-.012-.015-.019-.03-.032-.044-4.407-4.94-15.077,2.715-10.628,8.593C402,572.051,411.708,563.116,408.078,557.443Zm-1.309.875c2.567,4.261-5.317,11.5-8.418,6.286C395.82,560.35,403.644,555.039,406.77,558.318Z" transform="translate(-22.44 -23.795)" fill="#45e5c6"/>
    <path id="Caminho_22" data-name="Caminho 22" d="M378.962,518.865l5.46-.047a.589.589,0,0,0,0-1.176l-5.46.047A.589.589,0,0,0,378.962,518.865Z" transform="translate(-13.914 -5.637)" fill="#45e5c6"/>
    <path id="Caminho_23" data-name="Caminho 23" d="M384.868,521.463c-.757-.037-.755,1.14,0,1.176a13.739,13.739,0,0,0,3.143-.22c.744-.136.429-1.271-.313-1.135A12.368,12.368,0,0,1,384.868,521.463Z" transform="translate(-16.732 -7.37)" fill="#45e5c6"/>
    <path id="Caminho_24" data-name="Caminho 24" d="M402.5,582.97q-1.867.187-3.741.249c-.756.025-.759,1.2,0,1.177q1.875-.063,3.741-.249C403.243,584.072,403.251,582.895,402.5,582.97Z" transform="translate(-23.358 -36.804)" fill="#45e5c6"/>
    <path id="Caminho_25" data-name="Caminho 25" d="M402.871,586.877a7.109,7.109,0,0,1-1.238.308.593.593,0,0,0-.411.724.6.6,0,0,0,.724.411,7.1,7.1,0,0,0,1.238-.309.6.6,0,0,0,.411-.724A.593.593,0,0,0,402.871,586.877Z" transform="translate(-24.797 -38.658)" fill="#45e5c6"/>
  </g>
</svg>
